<?xml version="1.0" standalone="no"?>
<!DOCTYPE svg PUBLIC "-//W3C//DTD SVG 20010904//EN"
 "http://www.w3.org/TR/2001/REC-SVG-20010904/DTD/svg10.dtd">
<svg version="1.0" xmlns="http://www.w3.org/2000/svg"
 width="600.000000pt" height="369.000000pt" viewBox="0 0 600.000000 369.000000"
 preserveAspectRatio="xMidYMid meet">
<metadata>
Created by potrace 1.16, written by Peter Selinger 2001-2019
</metadata>
<g transform="translate(0.000000,369.000000) scale(0.100000,-0.100000)"
fill="#000000" stroke="none">
<path d="M2320 3672 c0 -19 44 -39 115 -53 22 -5 76 -17 120 -28 236 -60 526
-98 755 -100 58 -1 133 -6 168 -11 35 -5 138 -12 230 -16 92 -4 170 -11 173
-16 3 -4 57 -11 120 -15 63 -3 116 -10 119 -14 9 -14 137 -29 243 -29 90 0
185 -14 197 -30 11 -13 114 -40 156 -40 24 0 44 -4 44 -8 0 -5 26 -14 58 -21
90 -20 192 -51 192 -59 0 -7 40 -21 150 -54 19 -5 86 -35 149 -65 63 -30 127
-57 142 -60 16 -3 36 -14 45 -24 9 -11 30 -19 46 -19 15 0 28 -4 28 -8 0 -16
37 -52 53 -52 9 0 19 -9 22 -20 3 -11 13 -20 22 -20 33 0 73 -75 73 -137 0
-13 5 -23 10 -23 6 0 10 -9 10 -20 0 -11 4 -20 9 -20 5 0 11 -22 15 -49 4 -27
12 -51 18 -53 7 -3 14 -53 19 -139 4 -73 8 -135 8 -136 1 -2 10 -3 21 -3 14 0
22 -11 30 -41 6 -22 21 -49 33 -60 43 -39 52 -46 70 -52 16 -6 17 34 17 753
l0 760 -1840 0 c-1765 0 -1840 -1 -1840 -18z"/>
<path d="M1510 2220 c-82 -8 -146 -36 -319 -138 -86 -52 -92 -57 -75 -70 18
-13 17 -14 -6 -9 -72 17 -225 29 -296 23 -115 -8 -225 -39 -260 -71 l-29 -27
25 2 c38 3 43 1 31 -14 -7 -8 -27 -12 -51 -11 -34 2 -43 -2 -69 -35 -24 -30
-32 -52 -37 -102 -6 -61 -5 -66 20 -91 30 -30 33 -39 9 -30 -10 4 -14 2 -10
-5 4 -6 24 -16 44 -23 37 -12 37 -12 13 -21 -24 -9 -24 -10 -5 -20 26 -15
1769 -14 1805 1 l25 10 -23 7 c-22 6 -22 8 -6 25 12 13 31 19 59 19 55 0 76
25 105 123 20 68 21 81 10 121 -7 25 -21 53 -32 63 l-21 18 20 -40 c11 -22 24
-51 28 -65 7 -22 6 -23 -8 -12 -14 12 -20 9 -46 -20 -22 -24 -30 -28 -31 -16
0 9 12 25 26 35 25 19 26 21 13 64 -7 24 -16 46 -20 49 -3 3 -14 20 -23 37
-14 28 -14 32 -1 27 8 -4 15 -14 15 -24 0 -24 22 -41 39 -30 21 12 -43 74 -69
67 -11 -3 -18 -1 -15 3 7 11 -74 36 -164 51 -35 7 -110 31 -165 54 -113 47
-163 60 -286 75 -92 11 -107 11 -220 0z m202 -52 c70 -14 77 -31 11 -26 -46 3
-48 2 -51 -25 -2 -16 1 -34 7 -41 18 -22 -31 -34 -161 -41 l-118 -6 -10 25
c-5 14 -14 26 -20 26 -7 0 -8 -6 0 -19 15 -28 13 -31 -17 -31 -24 1 -25 2 -10
11 23 13 6 46 -25 51 -33 5 94 67 158 77 75 13 171 12 236 -1z m236 -228 c35
0 42 -3 40 -17 -2 -11 6 -19 20 -22 l24 -6 -20 -19 c-12 -10 -26 -15 -33 -11
-6 5 -26 10 -43 11 -17 2 -38 7 -46 10 -8 4 -26 8 -40 10 -14 1 -45 5 -71 8
-25 4 -108 -1 -185 -9 -76 -8 -217 -18 -313 -22 -162 -6 -175 -5 -187 12 -12
16 -14 16 -14 3 0 -12 -14 -18 -52 -23 -29 -4 -66 -14 -83 -24 l-30 -17 -45
47 -45 47 29 12 c21 9 51 10 115 4 107 -11 516 -8 716 4 83 6 166 8 185 6 19
-2 54 -4 78 -4z m-1168 -73 c75 -39 103 -134 60 -204 -26 -43 -68 -63 -130
-63 -45 0 -55 4 -92 39 -38 35 -42 43 -46 97 -3 50 0 63 19 88 53 67 116 82
189 43z m1454 9 c142 -59 88 -279 -70 -279 -116 0 -181 135 -109 228 45 60
112 79 179 51z"/>
<path d="M3456 2141 c-55 -6 -57 -7 -40 -22 14 -12 49 -18 123 -23 120 -7 181
-16 180 -25 -1 -11 -137 -121 -149 -121 -7 0 9 -29 35 -66 26 -36 44 -71 41
-80 -5 -14 15 -13 64 2 8 3 76 10 150 15 74 6 167 13 205 17 l70 7 -105 15
-105 15 -41 75 -41 75 28 3 c23 3 29 8 29 28 0 19 5 24 28 24 l27 0 -25 20
c-14 11 -30 20 -37 20 -6 0 -15 4 -18 10 -3 6 20 8 62 5 l68 -4 -55 9 c-61 9
-403 10 -494 1z"/>
<path d="M3065 2106 c-61 -19 -104 -44 -174 -100 -60 -48 -81 -78 -81 -112 0
-34 183 -83 397 -106 78 -8 111 -15 120 -27 6 -9 15 -13 18 -9 9 9 -72 102
-88 103 -7 1 -23 4 -37 8 -21 7 -49 10 -117 16 -18 1 -16 16 3 35 16 17 85 21
142 10 46 -9 75 -41 68 -74 -9 -45 25 -67 112 -72 62 -3 72 -1 72 13 0 25
-103 230 -135 267 -43 51 -73 62 -172 61 -48 0 -106 -6 -128 -13z m264 -32
c34 -28 87 -111 78 -121 -13 -12 -35 7 -42 36 -10 46 -48 71 -107 71 -39 0
-54 -5 -73 -25 -14 -13 -25 -36 -25 -50 0 -23 -4 -25 -44 -25 -23 0 -71 -3
-105 -7 l-63 -6 26 51 c29 58 29 57 99 83 35 12 80 18 139 19 79 0 89 -2 117
-26z"/>
<path d="M4129 2109 c19 -6 62 -30 95 -55 34 -24 93 -67 131 -95 39 -28 85
-64 103 -80 25 -23 41 -29 65 -27 31 3 27 7 -92 96 -152 114 -238 163 -294
168 l-42 4 34 -11z"/>
<path d="M2684 1715 c-4 -9 -1 -34 5 -56 l12 -40 35 20 c50 30 96 26 253 -18
147 -42 228 -56 380 -67 52 -3 118 -14 147 -24 l52 -18 33 41 c18 23 26 36 16
28 -15 -12 -17 -11 -17 13 0 16 -4 25 -10 21 -5 -3 -10 -1 -10 6 0 8 -4 8 -12
1 -7 -6 -26 -7 -43 -4 l-30 6 35 7 c33 6 32 6 -13 8 -27 0 -46 -3 -43 -8 9
-14 -51 -34 -79 -27 -15 4 -25 2 -25 -4 0 -6 -5 -8 -11 -4 -6 4 -46 10 -88 14
-42 5 -146 24 -232 43 -104 24 -169 34 -196 30 -33 -4 -43 -1 -54 15 -20 27
-97 40 -105 17z"/>
<path d="M2491 1691 c-33 -33 -44 -96 -38 -222 4 -85 11 -133 27 -177 24 -64
73 -132 96 -132 16 0 182 -55 229 -75 87 -39 285 -83 396 -90 32 -2 66 -8 77
-14 10 -6 22 -7 26 -4 3 3 6 2 6 -3 0 -5 23 -22 51 -39 28 -16 69 -45 91 -62
22 -18 47 -33 55 -33 16 0 52 -38 53 -55 0 -6 10 -16 21 -23 15 -10 18 -17 11
-24 -8 -8 -18 -6 -36 6 -15 9 -26 12 -26 7 0 -6 -7 -8 -16 -4 -19 7 -34 -13
-34 -44 0 -36 -33 -28 -66 17 -51 70 -71 74 -289 66 -104 -5 -223 -7 -264 -6
-57 1 -72 -1 -69 -12 3 -7 14 -14 26 -16 12 -2 29 -16 37 -32 20 -38 19 -43
-4 -30 -11 5 -31 10 -44 10 -31 0 -48 20 -40 48 4 19 1 22 -23 22 -15 0 -35
-7 -45 -15 -16 -15 -16 -13 -11 31 l5 46 -22 -18 c-11 -10 -21 -24 -21 -31 0
-26 -20 -12 -28 20 l-9 32 -11 -53 c-7 -30 -10 -58 -6 -63 8 -14 -14 -11 -25
4 -46 55 -62 78 -71 98 -12 29 -3 -71 10 -112 l8 -26 -426 -7 c-235 -4 -528
-14 -652 -22 -252 -16 -517 -17 -600 -3 -30 5 -113 14 -185 19 -71 6 -132 15
-135 19 -3 5 -61 12 -130 15 -195 10 -255 17 -239 27 9 6 -3 9 -37 9 -28 0
-66 3 -83 6 l-31 7 0 -377 0 -376 3000 0 3000 0 0 352 0 351 -120 -6 c-66 -4
-173 -10 -239 -13 l-119 -7 -7 44 -7 43 -17 -32 c-13 -25 -19 -30 -29 -20 -9
9 -9 15 3 28 12 13 12 22 1 53 -7 20 -16 34 -19 30 -4 -3 -7 1 -7 10 0 9 4 17
9 17 31 0 15 125 -17 133 -11 2 -5 7 18 14 l35 10 -40 17 c-38 16 -39 18 -21
32 23 16 22 17 -20 32 -23 7 -47 6 -90 -4 -33 -7 -68 -13 -79 -13 -11 1 16 10
60 20 43 11 98 31 121 44 72 42 134 137 134 206 0 26 -3 30 -17 24 -32 -13
-217 -43 -298 -49 -77 -6 -79 -5 -40 8 l40 14 -36 1 c-19 1 -40 -4 -47 -11 -7
-7 -12 -8 -12 -3 0 5 -6 1 -12 -8 -10 -13 -35 -18 -113 -21 l-100 -5 80 13 80
14 -105 -5 c-58 -3 -132 -9 -165 -13 l-60 -7 60 -3 60 -2 -55 -9 c-30 -4 -61
-6 -67 -4 -7 2 -12 1 -11 -3 3 -16 -15 -41 -25 -35 -16 10 -98 3 -121 -9 -11
-6 -30 -23 -43 -39 -21 -25 -27 -27 -54 -17 -20 7 -27 13 -19 18 7 4 13 25 14
46 l1 39 -55 5 c-30 3 -68 13 -85 22 -48 26 -215 29 -215 4 0 -9 -8 -12 -25
-8 -23 4 -25 2 -25 -37 0 -22 -3 -41 -7 -41 -5 0 -16 28 -26 63 -25 83 -46
127 -63 127 -8 0 -14 4 -14 9 0 21 -85 114 -128 142 -109 69 -216 11 -264
-144 -26 -83 -25 -81 -27 -107 -2 -32 -18 -23 -32 18 -28 86 -96 135 -204 145
-33 3 -139 24 -236 46 -191 44 -229 48 -280 27 -19 -7 -40 -11 -46 -9 -7 3
-13 -1 -13 -9 -1 -7 -7 -1 -16 14 -13 25 -17 26 -35 15 -18 -10 -20 -18 -14
-57 17 -127 14 -141 -9 -42 -29 119 -77 217 -117 238 -35 18 -35 18 -58 -5z
m80 -78 c13 -15 17 -22 8 -16 -13 11 -15 4 -15 -62 1 -79 7 -83 29 -20 l14 40
7 -33 c5 -21 3 -38 -4 -48 -14 -16 -7 -99 11 -120 6 -8 7 -27 3 -51 l-8 -38
-8 43 c-14 65 -37 54 -39 -18 -2 -62 -1 -65 22 -44 22 19 22 19 11 -2 -18 -34
-39 -36 -69 -7 -16 14 -20 20 -10 13 11 -8 17 -9 17 -2 0 6 -4 14 -10 17 -5 3
-10 11 -10 17 0 7 5 7 14 -1 11 -9 15 -8 20 5 9 24 7 72 -3 79 -17 10 -51 -45
-46 -74 4 -21 2 -19 -11 9 -26 55 -38 173 -25 238 20 101 55 127 102 75z
m1256 -143 c45 -27 88 -90 115 -168 18 -53 23 -88 23 -172 0 -97 -2 -110 -30
-165 -76 -152 -203 -137 -289 34 -36 70 -49 147 -44 252 5 106 34 179 85 218
36 26 98 27 140 1z m1572 -222 c-6 -24 -16 -48 -24 -54 -13 -10 -244 -49 -250
-42 -9 9 19 100 31 105 19 7 180 30 220 32 l32 1 -9 -42z m-2141 -92 c164 -55
312 -120 300 -132 -2 -2 -42 10 -88 26 -47 16 -172 53 -279 83 -106 30 -186
57 -178 60 8 3 26 3 39 0 21 -6 22 -5 9 10 -7 9 -9 17 -4 17 5 0 95 -29 201
-64z m1632 -245 c0 -15 -25 -19 -170 -30 -158 -12 -326 -16 -460 -11 l-95 3
130 7 c280 16 500 32 504 36 9 8 91 4 91 -5z"/>
</g>
</svg>
