<?xml version="1.0" standalone="no"?>
<!DOCTYPE svg PUBLIC "-//W3C//DTD SVG 20010904//EN"
 "http://www.w3.org/TR/2001/REC-SVG-20010904/DTD/svg10.dtd">
<svg version="1.0" xmlns="http://www.w3.org/2000/svg"
 width="225.000000pt" height="225.000000pt" viewBox="0 0 225.000000 225.000000"
 preserveAspectRatio="xMidYMid meet">
<metadata>
Created by potrace 1.16, written by Peter Selinger 2001-2019
</metadata>
<g transform="translate(0.000000,225.000000) scale(0.100000,-0.100000)"
fill="#000000" stroke="none">
<path d="M975 2049 c-428 -54 -807 -380 -929 -801 -85 -293 -42 -630 113 -887
52 -85 100 -142 101 -119 0 38 42 126 80 172 81 98 237 199 366 236 40 12 42
11 106 -33 195 -133 429 -134 622 -2 l63 43 70 -27 c129 -51 234 -123 310
-213 39 -47 82 -131 84 -163 0 -11 4 -29 8 -39 6 -16 17 -6 65 60 284 389 283
937 -2 1320 -251 337 -642 505 -1057 453z m216 -409 c129 -24 265 -131 323
-253 101 -214 58 -471 -105 -621 -100 -93 -214 -131 -342 -114 -213 28 -387
250 -387 493 0 263 198 492 436 504 12 1 46 -4 75 -9z"/>
</g>
</svg>
